<?xml version="1.0" encoding="UTF-8"?>
<svg width="121px" height="24px" viewBox="0 0 121 24" version="1.1" xmlns="http://www.w3.org/2000/svg" xmlns:xlink="http://www.w3.org/1999/xlink">
    <!-- Generator: Sketch 62 (91390) - https://sketch.com -->
    <title>Shape</title>
    <desc>Created with Sketch.</desc>
    <g id="Page-1" stroke="none" stroke-width="1" fill="none" fill-rule="evenodd">
        <g id="Facebook" transform="translate(-42.000000, -20.000000)" fill="#FFFFFF" fill-rule="nonzero">
            <g id="facebook-1" transform="translate(42.000000, 20.000000)">
                <g id="Group">
                    <path d="M62.2762316,11.6712252 C61.2778079,11.6712252 60.5580921,11.9986567 59.8283026,12.332245 L59.8283026,19.8805202 C60.5273111,19.9471259 60.9280238,19.9471259 61.5912144,19.9471259 C63.9876552,19.9471259 64.3161724,18.8495308 64.3161724,17.3170395 L64.3161724,13.7119349 C64.3161724,12.5801974 63.9406442,11.6712252 62.2762316,11.6712252 L62.2762316,11.6712252 Z M46.3607755,11.2592772 C44.6980419,11.2592772 44.3185961,12.1721674 44.3185961,13.3027855 L44.3185961,13.9380585 L48.4007164,13.9380585 L48.4007164,13.3027855 C48.4007164,12.1721674 48.0212706,11.2592772 46.3607755,11.2592772 Z M15.5294064,19.1159537 C15.5294064,20.0103733 15.9513859,20.4749342 16.8826511,20.4749342 C17.8816345,20.4749342 18.4731893,20.1491819 19.2024192,19.8144742 L19.2024192,18.0239557 L17.0180875,18.0239557 C15.9838459,18.0239557 15.5294064,18.2164966 15.5294064,19.1159537 Z M77.7579554,11.6712252 C76.0924235,11.6712252 75.5154196,12.5801974 75.5154196,13.7119349 L75.5154196,17.8420493 C75.5154196,18.9765854 76.0924235,19.8883561 77.7579554,19.8883561 C79.4190101,19.8883561 80.0004912,18.9765854 80.0004912,17.8420493 L80.0004912,13.7119349 C79.9999315,12.5801974 79.4184505,11.6712252 77.7579554,11.6712252 L77.7579554,11.6712252 Z M7.36740442,23.7470102 L2.47154642,23.7470102 L2.47154642,11.8956697 L0.0252963856,11.8956697 L0.0252963856,7.81201142 L2.47210608,7.81201142 L2.47210608,5.35935372 C2.47210608,2.02738857 3.85277385,0.046568033 7.77707155,0.046568033 L11.0443348,0.046568033 L11.0443348,4.13134573 L9.00215536,4.13134573 C7.47429844,4.13134573 7.37356062,4.70225191 7.37356062,5.76738372 L7.36740442,7.81145171 L11.066721,7.81145171 L10.634108,11.89511 L7.36740442,11.89511 L7.36740442,23.7470102 L7.36740442,23.7470102 Z M24.0993965,23.7777944 L20.0189552,23.7777944 L19.842664,22.7456856 C17.979574,23.7777944 16.3168403,23.9451482 15.2199174,23.9451482 C12.2274445,23.9451482 10.6346677,21.9458572 10.6346677,19.1808802 C10.6346677,15.9188791 12.4932804,14.7546783 15.8181881,14.7546783 L19.2024192,14.7546783 L19.2024192,14.0494412 C19.2024192,12.3842982 19.011577,11.8956697 16.4511574,11.8956697 L12.2649414,11.8956697 L12.6740489,7.81201142 L17.2497845,7.81201142 C22.8675968,7.81201142 24.0993965,9.58685796 24.0993965,14.0824642 L24.0993965,23.7777944 L24.0993965,23.7777944 Z M37.9749118,12.1951156 C35.4357591,11.7596597 34.7065292,11.663949 33.4848033,11.663949 C31.2903978,11.663949 30.6272072,12.1480998 30.6272072,14.0119405 L30.6272072,17.537566 C30.6272072,19.4014067 31.2903978,19.8877964 33.4848033,19.8877964 C34.7065292,19.8877964 35.4357591,19.7904065 37.9749118,19.3532715 L37.9749118,23.3367414 C35.7508446,23.8354447 34.3018989,23.9664173 33.0773748,23.9664173 C27.8210993,23.9664173 25.7319088,21.202 25.7319088,17.2084554 L25.7319088,14.3477677 C25.7319088,10.3508648 27.8210993,7.5814101 33.0773748,7.5814101 C34.3018989,7.5814101 35.7508446,7.71294241 37.9749118,8.21388459 L37.9749118,12.1951156 L37.9749118,12.1951156 Z M53.2960147,17.2084554 L44.3180364,17.2084554 L44.3180364,17.537566 C44.3180364,19.4014067 44.9817867,19.8877964 47.1756325,19.8877964 C49.1478552,19.8877964 50.3516721,19.7904065 52.8863476,19.3532715 L52.8863476,23.3367414 C50.4417765,23.8354447 49.1680027,23.9664173 46.769883,23.9664173 C41.5130478,23.9664173 39.4227381,21.202 39.4227381,17.2084554 L39.4227381,13.9374988 C39.4227381,10.4432172 40.9735408,7.5814101 46.3602159,7.5814101 C51.7468909,7.5814101 53.2960147,10.4101942 53.2960147,13.9374988 L53.2960147,17.2084554 L53.2960147,17.2084554 Z M69.2109111,17.2840165 C69.2109111,21.14379 68.107832,23.959141 61.4255567,23.959141 C59.0123263,23.959141 57.5969599,23.7470102 54.9335639,23.3373011 L54.9335639,1.27345659 L59.827743,0.456836881 L59.827743,8.17470475 C60.8854901,7.78178697 62.2544051,7.58196981 63.5001961,7.58196981 C68.3949348,7.58196981 69.2103515,9.77660031 69.2103515,13.3033452 L69.2103515,17.2840165 L69.2109111,17.2840165 Z M84.8997071,17.3679733 C84.8997071,20.6976996 83.5251956,23.9272374 77.7741854,23.9272374 C72.020377,23.9272374 70.6201213,20.6976996 70.6201213,17.3679733 L70.6201213,14.1529879 C70.6201213,10.8215825 72.020377,7.59148492 77.7741854,7.59148492 C83.5251956,7.59148492 84.8997071,10.8215825 84.8997071,14.1529879 L84.8997071,17.3679733 Z M100.57787,17.3679733 C100.57787,20.6976996 99.2016791,23.9272374 93.4517883,23.9272374 C87.6979799,23.9272374 86.2977242,20.6976996 86.2977242,17.3679733 L86.2977242,14.1529879 C86.2977242,10.8215825 87.6979799,7.59148492 93.4517883,7.59148492 C99.2016791,7.59148492 100.57787,10.8215825 100.57787,14.1529879 L100.57787,17.3679733 Z M116.667378,23.7470102 L111.362413,23.7470102 L106.875662,16.2563854 L106.875662,23.7470102 L101.979804,23.7470102 L101.979804,1.27289688 L106.875662,0.456277169 L106.875662,14.924271 L111.362413,7.81201142 L116.667378,7.81201142 L111.769282,15.5735368 L116.667378,23.7470102 L116.667378,23.7470102 Z M93.4349987,11.6712252 C91.772265,11.6712252 91.1952612,12.5801974 91.1952612,13.7119349 L91.1952612,17.8420493 C91.1952612,18.9765854 91.772265,19.8883561 93.4349987,19.8883561 C95.0954937,19.8883561 95.683131,18.9765854 95.683131,17.8420493 L95.683131,13.7119349 C95.683131,12.5801974 95.0954937,11.6712252 93.4349987,11.6712252 Z M119.461734,20.9518088 C120.286105,20.9518088 120.942579,21.6240228 120.942579,22.4635907 C120.942579,23.316032 120.285545,23.9809698 119.455577,23.9809698 C118.629527,23.9809698 117.959621,23.316032 117.959621,22.4635907 C117.959621,21.6240228 118.629527,20.9518088 119.455577,20.9518088 L119.461734,20.9518088 L119.461734,20.9518088 Z M119.455577,21.1868878 C118.791267,21.1868878 118.247843,21.7583537 118.247843,22.4635907 C118.247843,23.1817012 118.791827,23.7458908 119.461734,23.7458908 C120.1322,23.7526073 120.667789,23.1817012 120.667789,22.4703073 C120.667789,21.7589134 120.1322,21.1868878 119.461734,21.1868878 L119.455577,21.1868878 L119.455577,21.1868878 Z M119.174071,23.3434579 L118.905437,23.3434579 L118.905437,21.6564861 C119.04647,21.6368962 119.180787,21.6173063 119.382263,21.6173063 C119.637465,21.6173063 119.804242,21.6710386 119.906659,21.7443609 C120.005718,21.8188026 120.058885,21.9324241 120.058885,22.0930614 C120.058885,22.3158268 119.912255,22.4495979 119.731487,22.50389 L119.731487,22.5167634 C119.878676,22.5441893 119.978854,22.6774007 120.012993,22.9253531 C120.052169,23.187858 120.093024,23.2880464 120.119328,23.3428982 L119.837821,23.3428982 C119.798086,23.2880464 119.757231,23.1341256 119.723652,22.91192 C119.684476,22.6975503 119.575903,22.6169518 119.360996,22.6169518 L119.174631,22.6169518 L119.174631,23.3434579 L119.174071,23.3434579 Z M119.174071,22.4098584 L119.368831,22.4098584 C119.589335,22.4098584 119.776819,22.3287002 119.776819,22.1199276 C119.776819,21.9721637 119.670485,21.8249594 119.368831,21.8249594 C119.280965,21.8249594 119.219963,21.831676 119.174071,21.8378328 L119.174071,22.4098584 Z" id="Shape"></path>
                </g>
            </g>
        </g>
    </g>
</svg>